<svg width="576" height="360" viewBox="0 0 576 360" fill="none" xmlns="http://www.w3.org/2000/svg">
  <defs>
    <linearGradient id="badgeGradient" x1="30" y1="0" x2="576" y2="360" gradientUnits="userSpaceOnUse">
      <stop stop-color="#6C84FF" />
      <stop offset="1" stop-color="#2C44F5" />
    </linearGradient>
    <clipPath id="badgeClip">
      <rect width="576" height="360" rx="90" />
    </clipPath>
  </defs>
  <rect width="576" height="360" rx="90" fill="url(#badgeGradient)" />
    <path d="M0 0H576V108.000L0 36.000V0Z" fill="#FFFFFF" fill-opacity="0.14" clip-path="url(#badgeClip)"/>
  <path d="M153 0V1400H557V906H1025V1400H1429V0H1025V538H557V0Z" transform="translate(83.200 233.000) scale(0.085000 -0.085000)" fill="#FFFFFF"/>
  <path d="M84 0V256L378 516Q512 635 583.5 708.5Q655 782 681.5 833.5Q708 885 708 938Q708 1016 658.0 1056.0Q608 1096 512 1096Q421 1096 338.0 1057.5Q255 1019 184 944L50 1236Q152 1328 284.5 1379.0Q417 1430 550 1430Q713 1430 831.5 1374.5Q950 1319 1014.0 1220.0Q1078 1121 1078 992Q1078 907 1044.5 827.5Q1011 748 927.5 649.5Q844 551 694 408L608 326H1116V0Z" transform="translate(215.670 233.000) scale(0.085000 -0.085000)" fill="#FFFFFF"/>
  <path d="M300 -30Q206 -30 136.0 29.5Q66 89 66 192Q66 262 98.0 312.0Q130 362 183.5 389.0Q237 416 300 416Q395 416 464.5 356.5Q534 297 534 192Q534 123 501.5 73.0Q469 23 416.0 -3.5Q363 -30 300 -30Z" transform="translate(323.840 233.000) scale(0.085000 -0.085000)" fill="#FFFFFF"/>
  <path d="M688 -30Q541 -30 427.5 27.0Q314 84 237.0 185.0Q160 286 120.0 418.0Q80 550 80 700Q80 851 120.0 983.0Q160 1115 237.0 1215.5Q314 1316 427.5 1373.0Q541 1430 688 1430Q835 1430 948.5 1373.0Q1062 1316 1139.0 1215.5Q1216 1115 1256.0 983.0Q1296 851 1296 700Q1296 550 1256.0 418.0Q1216 286 1139.0 185.0Q1062 84 948.5 27.0Q835 -30 688 -30ZM688 312Q741 312 783.0 336.5Q825 361 855.5 409.5Q886 458 902.0 530.5Q918 603 918 700Q918 829 889.5 915.5Q861 1002 809.5 1045.0Q758 1088 688 1088Q636 1088 593.5 1063.5Q551 1039 520.5 990.5Q490 942 474.0 869.5Q458 797 458 700Q458 571 486.5 485.0Q515 399 566.5 355.5Q618 312 688 312Z" transform="translate(375.840 233.000) scale(0.085000 -0.085000)" fill="#FFFFFF"/>
</svg>
